<svg class="icon multi-color" width="32" height="32" id="chart-pie-alt" xmlns="http://www.w3.org/2000/svg" viewBox="0 0 24 24"><title style="stroke-width: 1.5;">chart pie alt</title><path id="secondary-fill" d="M21,12a9,9,0,0,1-2.64,6.36L12,12V3A9,9,0,0,1,21,12Z" style="fill: rgb(251, 181, 0); stroke-width: 1.5;"></path><path id="tertiary-fill" d="M18.36,18.36a9,9,0,0,1-15-4L12,12Z" style="fill: rgb(224, 224, 222); stroke-width: 1.5;"></path><path id="primary-stroke" d="M21,12a9,9,0,0,1-2.64,6.36L12,12V3A9,9,0,0,1,21,12Zm-9,0L3.32,14.37a9,9,0,0,0,15,4ZM3,12a8.86,8.86,0,0,0,.32,2.37L12,12V3A9,9,0,0,0,3,12Z" style="fill: none; stroke: rgb(0, 41, 107); stroke-linecap: round; stroke-linejoin: round; stroke-width: 1.5;"></path></svg>