<svg class="icon multi-color" width="32" height="32" id="chat-alt5" xmlns="http://www.w3.org/2000/svg" viewBox="0 0 24 24"><title style="stroke-width: 1.5;">chat alt 5</title><path id="secondary-fill" d="M21,6.27V16a1,1,0,0,1-1,1H13L8,21V17H4a1,1,0,0,1-1-1V6.27A2,2,0,0,1,4,6H20A2,2,0,0,1,21,6.27Z" style="fill: rgb(251, 181, 0); stroke-width: 1.5;"></path><path id="primary-stroke" d="M21,4V16a1,1,0,0,1-1,1H13L8,21V17H4a1,1,0,0,1-1-1V4A1,1,0,0,1,4,3H20A1,1,0,0,1,21,4Z" style="fill: none; stroke: rgb(0, 41, 107); stroke-linecap: round; stroke-linejoin: round; stroke-width: 1.5;"></path><path id="primary-upstroke" d="M16,11h0Zm-4,0h0ZM8,11H8Z" style="fill: none; stroke: rgb(0, 41, 107); stroke-linecap: round; stroke-linejoin: round; stroke-width: 2.5;"></path></svg>