<svg id="Layer_2" data-name="Layer 2" xmlns="http://www.w3.org/2000/svg" xmlns:xlink="http://www.w3.org/1999/xlink" viewBox="0 0 1100 1000"><defs><style>.cls-1,.cls-3,.cls-6,.cls-7,.cls-9{fill:none;}.cls-2{fill:#d7e8f0;}.cls-3,.cls-9{stroke:#ccdde2;}.cls-3,.cls-6,.cls-7,.cls-9{stroke-miterlimit:10;}.cls-3,.cls-6{stroke-width:2.5px;}.cls-4{fill:#003f88;}.cls-5{fill:#2e2e2e;}.cls-6,.cls-7{stroke:#000;}.cls-7{stroke-width:1.9px;}.cls-8{clip-path:url(#clip-path);}.cls-9{stroke-width:3.5px;}</style><clipPath id="clip-path"><path class="cls-1" d="M104.18-65S15.26-153.86,65.25-226.07,231.91-360.25,183.3-477.87s38.33-178.34,123.25-172.51S620.31-592,679.56-677s307.13,15.59,265.82,315.22S679.56-65,679.56-65Z"/></clipPath></defs><path class="cls-2" d="M950,863.68H821.56v13.7a64.22,64.22,0,1,0,128.44,0v-13.7"/><path class="cls-3" d="M395,249.83l-.21-127.31A64.25,64.25,0,0,1,459,58.28H885.76"/><polyline class="cls-3" points="821.55 876.41 821.55 863.67 821.55 239.29 821.55 122.52"/><path class="cls-2" d="M821.56,224.4H950V122.52a64.22,64.22,0,1,0-128.44,0V239.29"/><path class="cls-3" d="M821.56,224.4H950V122.52a64.22,64.22,0,1,0-128.44,0V239.29"/><path class="cls-3" d="M821.54,863.68v12.74a64.23,64.23,0,0,0,64.23,64.22h0"/><line class="cls-3" x1="488.92" y1="940.65" x2="459.04" y2="940.65"/><path class="cls-3" d="M821.56,863.67H950v12.74a64.26,64.26,0,0,1-64.24,64.24H575.69"/><line class="cls-3" x1="749.68" y1="340.7" x2="645.92" y2="340.7"/><line class="cls-3" x1="749.68" y1="380.93" x2="645.92" y2="380.93"/><line class="cls-3" x1="749.68" y1="421.17" x2="645.92" y2="421.17"/><line class="cls-3" x1="749.68" y1="461.4" x2="645.92" y2="461.4"/><line class="cls-3" x1="749.68" y1="501.64" x2="645.92" y2="501.64"/><line class="cls-3" x1="749.68" y1="541.87" x2="645.92" y2="541.87"/><line class="cls-3" x1="749.68" y1="676.28" x2="645.92" y2="676.28"/><line class="cls-3" x1="749.68" y1="695.04" x2="645.92" y2="695.04"/><line class="cls-3" x1="749.68" y1="713.8" x2="645.92" y2="713.8"/><line class="cls-3" x1="749.68" y1="732.56" x2="645.92" y2="732.56"/><rect class="cls-3" x="599.48" y="287.95" width="194.89" height="499.08" rx="20.3"/><line class="cls-3" x1="645.92" y1="247.84" x2="563.83" y2="247.84"/><line class="cls-3" x1="645.92" y1="200.58" x2="577.08" y2="200.58"/><line class="cls-3" x1="645.92" y1="224.21" x2="567.46" y2="224.21"/><line class="cls-3" x1="645.92" y1="176.94" x2="553.05" y2="176.94"/><circle class="cls-2" cx="720.72" cy="192.85" r="12.71"/><path class="cls-2" d="M688.52,244.65a32.21,32.21,0,0,1,64.41,0Z"/><rect class="cls-3" x="677.46" y="169.13" width="86.53" height="86.53" rx="9.18"/><path class="cls-2" d="M723.86,822l9.42,19.07a3.52,3.52,0,0,0,2.63,1.92L757,846.05a3.5,3.5,0,0,1,1.94,6l-15.23,14.85a3.49,3.49,0,0,0-1,3.1l3.59,21a3.5,3.5,0,0,1-5.08,3.69l-18.83-9.89a3.48,3.48,0,0,0-3.26,0l-18.82,9.89a3.51,3.51,0,0,1-5.09-3.69l3.6-21a3.5,3.5,0,0,0-1-3.1L682.54,852a3.5,3.5,0,0,1,1.94-6l21-3.06a3.53,3.53,0,0,0,2.64-1.92L717.58,822A3.5,3.5,0,0,1,723.86,822Z"/><line class="cls-3" x1="457.73" y1="869.93" x2="636.71" y2="869.93"/><line class="cls-3" x1="457.73" y1="895.03" x2="636.71" y2="895.03"/><path class="cls-2" d="M421.9,298.57h-.8a3,3,0,0,1-3-3h0a3,3,0,0,1,3-3h15a3,3,0,0,1,3,3h0a3,3,0,0,1-3,3h-.92a3,3,0,0,0-3,3v14.76a3,3,0,0,1-3,3H428a3,3,0,0,1-3-3V301.6A3,3,0,0,0,421.9,298.57Z"/><path class="cls-2" d="M453.06,319.83c-8.34,0-12.93-6.26-12.93-13.72,0-7.82,5.11-14.05,13.37-14.05,8.66,0,13.05,6.43,13.05,13.61,0,8.66-5.19,14.16-13.45,14.16Zm.36-5.7c3.47,0,5.51-3.36,5.51-8.22,0-4.63-2.08-8.14-5.59-8.14s-5.59,3.51-5.59,8.18,2.12,8.18,5.59,8.18Z"/><path class="cls-2" d="M470.38,295.2a2.59,2.59,0,0,1,2.32-2.59c1.79-.18,4-.31,6.38-.31,4.11,0,7.06.56,9.1,2.11a6.93,6.93,0,0,1,2.63,5.83,7.23,7.23,0,0,1-4.59,6.51v.12c1.76.79,2.76,2.51,3.43,4.82.29,1,.59,2.13.87,3.23a3.57,3.57,0,0,1-3.45,4.48H487a3.55,3.55,0,0,1-3.42-2.54c-.3-1-.63-2.21-1-3.69-.72-3.19-1.72-3.87-3.95-3.87h-1.16v6.52A3.57,3.57,0,0,1,474,319.4h0a3.57,3.57,0,0,1-3.57-3.58Zm7.14,8.91h1.88c2.71,0,4.27-1.31,4.27-3.31s-1.32-3.15-3.71-3.15a12.48,12.48,0,0,0-2.44.16Z"/><path class="cls-2" d="M509,308.54H504.7a2.48,2.48,0,0,0-2.48,2.48h0a2.48,2.48,0,0,0,2.48,2.47h5.42A2.91,2.91,0,0,1,513,316.4v.08a2.92,2.92,0,0,1-2.92,2.92H497.47a2.47,2.47,0,0,1-2.47-2.48V295.33a3.07,3.07,0,0,1,3.07-3.08h11.49a2.92,2.92,0,0,1,2.92,2.92v.08a2.91,2.91,0,0,1-2.92,2.91H504.5a2.28,2.28,0,0,0-2.28,2.28h0a2.27,2.27,0,0,0,2.28,2.27H509a2.92,2.92,0,0,1,2.91,2.92h0A2.91,2.91,0,0,1,509,308.54Z"/><path class="cls-4" d="M497.11,204.63s-39.2.42-64.25,38.07S398.32,325.82,399.92,381l-2.79,115.62s41.57,5.45,55.59-13.53c0,0,3.12-15.72,26.51-29.15Z"/><path class="cls-5" d="M469.61,737.83l13.73,12v6.89l-4,1.37s-19,1.95-17.49-1.5S469.61,737.83,469.61,737.83Z"/><path d="M417.74,856.54l-37,83.89h-94a13.2,13.2,0,1,1,0-26.39h0a59.62,59.62,0,0,0,58.55-48.27l1.8-9.23C347.2,856,417.74,856.54,417.74,856.54Z"/><path d="M672.4,853l-47.69,80.95A13.2,13.2,0,1,1,602,920.54a59.67,59.67,0,0,0-11.81-74.95c-3.31-2.93-6-5.31-7.52-6.64l49.29-42.39Z"/><path class="cls-5" d="M682.15,786.87h-199V513.4h-.05c-2.44-41.48-19.28-47-19.28-47l9-7.11c-25.55-118.34-3-205,21-254.66a247.14,247.14,0,0,1,25.34-41.91c.11-.15.23-.27.32-.41a7.42,7.42,0,0,1,13.32,4.47l.12,32.6c40.81-1.69,64.76,44.76,74.6,78.26,10.45,35.64,10.19,74.63,2.55,110.48a177,177,0,0,1-13.82,40.55Z"/><path class="cls-5" d="M452.72,166.34l-44.33,53.88,16.55-.09-27.2,29.7c-7.63,2.41-50.62,508.24-50.62,508.24h19.13l50.68-260.81a64,64,0,0,1-19.8-.67L400,353.4c2-45.95,20.46-118.87,66.53-141.72v0l.17-.09c1.11-22.47,6.94-37.19,6.94-37.19C461.75,177.05,452.72,166.34,452.72,166.34Z"/><path class="cls-6" d="M416.93,497.26,347.12,856.54l-1.8,9.23A59.62,59.62,0,0,1,286.77,914h0a13.2,13.2,0,1,0,0,26.39h94l37-83.89,65.34-148.07"/><polyline class="cls-6" points="483.1 513.41 483.1 786.86 682.16 786.86 596.24 428.73"/><path class="cls-6" d="M532.89,199.38l-38.6,34,38.6-.81L534,369.68a80,80,0,0,1-28.07,61.45l-31.64,27C437.8,293.55,492.72,197.4,519.46,162.3a7.41,7.41,0,0,1,13.31,4.48l.12,32.6c40.82-1.69,64.77,44.76,74.61,78.26,10.45,35.64,10.18,74.63,2.55,110.48-4.67,21.85-13.21,43.25-26.13,61.59-12.07,17.07-28.06,30.74-43.3,44.94-5.4,5-11,9.78-16.78,14.37l-40.76,31.61"/><path class="cls-4" d="M523.72,140.22a16.58,16.58,0,0,1-13.64,7,50.37,50.37,0,0,1-6.91-.38c-2.67-.35-4.12-1.08-2.29-2.41A13.19,13.19,0,0,0,502.5,143a25.47,25.47,0,0,0,6.53-12c1.14-5.05,0-10-3.94-12.71a10.68,10.68,0,0,0-3.08-1.45,23.69,23.69,0,0,0-5.46-1c-.93-.06-1.89-.09-2.84-.09-1-6.09-3.28-14.66-7.93-18.23a7.89,7.89,0,0,0-8.07-.93c-7,2.67-17.39,4.73-22.93,3.66a2.33,2.33,0,0,1-.64-1.28,50.06,50.06,0,0,1,2.67-5.63,47.9,47.9,0,0,1,3.6-5.37c9.93-12.65,27.29-18.6,43-15.64a37,37,0,0,1,7.32,2.14c7.22,3.86,12.28,10,15.56,17.42C535.3,116.74,529.29,132.24,523.72,140.22Z"/><path class="cls-6" d="M523.78,786.87,582.62,839c1.54,1.33,4.21,3.71,7.52,6.64A59.67,59.67,0,0,1,602,920.54a13.2,13.2,0,1,0,22.76,13.38L672.4,853l-40.49-56.41-7-9.69"/><path class="cls-6" d="M483.08,750.88l-13.47-11.94"/><path class="cls-6" d="M452.73,166.33l-44.35,53.9,16.55-.1-27.18,29.69c-.45.13-1,2.14-1.75,5.78-5.4,27.7-17.36,150.2-28.09,267.3C356.86,643.34,347.1,758.07,347.1,758.07h19.15"/><line class="cls-6" x1="483.08" y1="758.07" x2="461.2" y2="758.07"/><path class="cls-6" d="M483.08,513.4h0c-16.48-.38-24.29-7.26-27.78-15.15-4.9-11.18-1.07-24.3,8.51-31.85l10.51-8.27"/><path class="cls-6" d="M452.72,485.33s-27.78,16.84-55.59,11.26L400,353.4c2.41-54.14,27.54-145.72,93.84-148.77"/><path class="cls-6" d="M486.42,169.42s-38.81,24.33-41-31.55c-.66-17.1.09-37.36,11.18-51.44,9.93-12.66,27.29-18.61,43-15.65,13,2.47,21.28,10.45,25.95,21"/><path class="cls-7" d="M483.08,513.81a1.76,1.76,0,0,0,0-.41c-2.43-41.48-19.27-47-19.27-47"/><line class="cls-6" x1="472.27" y1="174.7" x2="466.47" y2="211.68"/><path class="cls-6" d="M453,91.8c-10.45,12.08,11.93,9.32,24,4.7,10.42-4,14.51,10.37,16,19.28"/><line class="cls-6" x1="519.14" y1="144.07" x2="519.14" y2="162.72"/><ellipse class="cls-7" cx="458.53" cy="127.53" rx="6.12" ry="13.97"/><ellipse class="cls-7" cx="441.06" cy="127.53" rx="6.12" ry="13.97"/><ellipse cx="458.53" cy="127.53" rx="6.12" ry="13.97"/><ellipse cx="441.06" cy="127.53" rx="6.12" ry="13.97"/><path class="cls-6" d="M464.05,121.51a135.66,135.66,0,0,1,18.61-4.73c6-1,12.72-1.87,18.62-.06,6.42,2,8.42,8,7,14.17A25.67,25.67,0,0,1,501.79,143a13.29,13.29,0,0,1-1.64,1.45c-3.16,2.32,3.43,2.79,9.2,2.79a16.61,16.61,0,0,0,13.65-7c5.57-8,11.58-23.48,2.55-48.42"/><path class="cls-6" d="M498.89,116.14A10.61,10.61,0,0,0,493,126.5"/><line class="cls-6" x1="890.91" y1="941.72" x2="122.4" y2="941.72"/><g class="cls-8"><path class="cls-9" d="M910.68-367.62c-9.5,15.08-21.54,28.25-37,37.46a86.75,86.75,0,0,1-29.5,10.91c-23.54,4.13-48.33-1.08-70.12-12a139,139,0,0,1-20.41-12.5,158,158,0,0,1-14.13-11.83c-2-1.91-3.95-3.87-5.83-5.91a114.46,114.46,0,0,1-14.25-18.88,92.88,92.88,0,0,1-11.87-30.16M945.38-65V-495.15h-787V-66.93L416-65.68l17.79.08,114,.58M158.4,78.6h1.79l-1.79-2.17Z"/></g></svg>