<svg class="icon multi-color" width="32" height="32" id="reward" xmlns="http://www.w3.org/2000/svg" viewBox="0 0 24 24"><title style="stroke-width: 1.5;">reward</title><path id="secondary-fill" d="M10,17,8,21,6,19,3,19l2.81-5.58h0M14,17l2,4,2-2,3,0-2.81-5.58h0" style="fill: rgb(251, 181, 0); stroke-width: 1.5;"></path><path id="tertiary-fill" d="M18.39,7.92c-.23-.7-.07-1.61-.5-2.2S16.54,5,16,4.56s-1-1.26-1.7-1.49-1.49.21-2.25.21-1.57-.43-2.25-.21S8.64,4.14,8.05,4.56s-1.51.57-1.94,1.16-.27,1.5-.5,2.2S4.72,9.24,4.72,10s.67,1.4.89,2.08.07,1.61.5,2.2,1.35.73,1.94,1.16,1,1.26,1.7,1.49,1.49-.21,2.25-.21,1.57.43,2.25.21,1.11-1.07,1.7-1.49,1.51-.57,1.94-1.16.27-1.5.5-2.2.89-1.32.89-2.08S18.61,8.6,18.39,7.92ZM12,13a3,3,0,1,1,3-3A3,3,0,0,1,12,13Z" style="fill: rgb(224, 224, 222); stroke-width: 1.5;"></path><path id="primary-stroke" d="M10,17,8,21,6,19,3,19l2.81-5.58h0M14,17l2,4,2-2,3,0-2.81-5.58h0m.2-5.49c-.23-.7-.07-1.61-.5-2.2S16.54,5,16,4.56s-1-1.26-1.7-1.49-1.49.21-2.25.21-1.57-.43-2.25-.21S8.64,4.14,8.05,4.56s-1.51.57-1.94,1.16-.27,1.5-.5,2.2S4.72,9.24,4.72,10s.67,1.4.89,2.08.07,1.61.5,2.2,1.35.73,1.94,1.16,1,1.26,1.7,1.49,1.49-.21,2.25-.21,1.57.43,2.25.21,1.11-1.07,1.7-1.49,1.51-.57,1.94-1.16.27-1.5.5-2.2.89-1.32.89-2.08S18.61,8.6,18.39,7.92ZM12,13a3,3,0,1,1,3-3A3,3,0,0,1,12,13Z" style="fill: none; stroke: rgb(0, 41, 107); stroke-linecap: round; stroke-linejoin: round; stroke-width: 1.5;"></path></svg>