<svg class="icon multi-color" width="32" height="32" id="sound-max" xmlns="http://www.w3.org/2000/svg" viewBox="0 0 24 24"><title style="stroke-width: 1.5;">sound max</title><path id="secondary-fill" d="M7,9v6H4a1,1,0,0,1-1-1V10A1,1,0,0,1,4,9Z" style="fill: rgb(251, 181, 0); stroke-width: 1.5;"></path><path id="primary-stroke" d="M11,5V19L7,15H4a1,1,0,0,1-1-1V10A1,1,0,0,1,4,9H7Z" style="fill: none; stroke: rgb(0, 41, 107); stroke-linecap: round; stroke-linejoin: round; stroke-width: 1.5;"></path><path id="tertiary-stroke" d="M18.36,5.64a9,9,0,0,1,0,12.72m-2.82-2.82a5,5,0,0,0,0-7.08" style="fill: none; stroke: rgb(224, 224, 222); stroke-linecap: round; stroke-linejoin: round; stroke-width: 1.5;"></path></svg>