<svg class="icon multi-color" width="32" height="32" id="upload" xmlns="http://www.w3.org/2000/svg" viewBox="0 0 24 24"><path id="tertiary-fill" d="M4,19H20a0,0,0,0,1,0,0v1a1,1,0,0,1-1,1H5a1,1,0,0,1-1-1V19A0,0,0,0,1,4,19Z" style="fill: rgb(224, 224, 222); stroke-width: 1.5;"></path><path id="primary-stroke" d="M20,16v4a1.08,1.08,0,0,1-1.14,1H5.14A1.08,1.08,0,0,1,4,20V16" style="fill: none; stroke: rgb(0, 41, 107); stroke-linecap: round; stroke-linejoin: round; stroke-width: 1.5;"></path><path id="secondary-stroke" d="M12,16V3m4,4L12,3,8,7" style="fill: none; stroke: rgb(251, 181, 0); stroke-linecap: round; stroke-linejoin: round; stroke-width: 1.5;"></path></svg>